# AST/ASF file generated using VICON BodyLanguage
# -----------------------------------------------
:version 1.10
:name VICON
:units
  mass 1.0
  length 0.45
  angle deg
:documentation
   .ast/.asf automatically generated from VICON data using
   VICON BodyBuilder and BodyLanguage model FoxedUp or BRILLIANT.MOD
:root
   order TX TY TZ RX RY RZ
   axis XYZ
   position 0 0 0  
   orientation 0 0 0 
:bonedata
  begin
     id 1 
     name lhipjoint
     direction 0.567149 -0.783011 0.255413 
     length 2.28399 
     axis 0 0 0  XYZ
  end
  begin
     id 2 
     name lfemur
     direction 0.34202 -0.939693 0  
     length 7.34031  
     axis 0 0 20  XYZ
    dof rx ry rz
    limits (-160.0 20.0)
           (-70.0 70.0)
           (-60.0 70.0)
  end
  begin
     id 3 
     name ltibia
     direction 0.34202 -0.939693 0   
     length 6.9833   
     axis 0 0 20   XYZ
    dof rx
    limits (-10.0 170.0)
  end
  begin
     id 4 
     name lfoot
     direction 0.136498 -0.375025 0.91691   
     length 2.33665   
     axis -90 7.62852e-016 20   XYZ
    dof rx rz
    limits (-45.0 90.0)
           (-70.0 20.0)
  end
  begin
     id 5 
     name ltoes
     direction 1.5367e-011 -4.21617e-011 1   
     length 1.15039   
     axis -90 7.62852e-016 20   XYZ
    dof rx
    limits (-90.0 20.0)
  end
  begin
     id 6 
     name rhipjoint
     direction -0.602854 -0.758518 0.247423   
     length 2.35775  
     axis 0 0 0  XYZ 
  end
  begin
     id 7 
     name rfemur
     direction -0.34202 -0.939693 0   
     length 7.43932   
     axis 0 0 -20   XYZ
    dof rx ry rz
    limits (-160.0 20.0)
           (-70.0 70.0)
           (-70.0 60.0)
  end
  begin
     id 8 
     name rtibia
     direction -0.34202 -0.939693 0   
     length 7.11893   
     axis 0 0 -20   XYZ
    dof rx
    limits (-10.0 170.0)
 end
 begin
     id 9 
     name rfoot
     direction -0.131771 -0.362037 0.922803   
     length 2.53019  
     axis -90 -7.62852e-016 -20   XYZ
    dof rx rz
    limits (-45.0 90.0)
           (-20.0 70.0)
  end
  begin
     id 10 
     name rtoes
     direction -1.53733e-011 -4.21932e-011 1   
     length 1.24596   
     axis -90 -7.62852e-016 -20   XYZ
    dof rx
    limits (-90.0 20.0)
  end
  begin
     id 11 
     name lowerback
     direction 0.0235427 0.999023 -0.0374125   
     length 2.21768   
     axis 0 0 0   XYZ
    dof rx ry rz
    limits (-20.0 45.0)
           (-30.0 30.0)
           (-30.0 30.0)
  end
  begin
     id 12 
     name upperback
     direction 0.0302156 0.996818 -0.073759   
     length 2.20352   
     axis 0 0 0   XYZ
    dof rx ry rz
    limits (-20.0 45.0)
           (-30.0 30.0)
           (-30.0 30.0)
  end
  begin
     id 13 
     name thorax
     direction 0.0187169 0.998235 -0.0563532   
     length 2.22103   
     axis 0 0 0   XYZ
    dof rx ry rz
    limits (-20.0 45.0)
           (-30.0 30.0)
           (-30.0 30.0)
  end
  begin
     id 14 
     name lowerneck
     direction -0.119528 0.987423 0.103481   
     length 1.72948   
     axis 0 0 0   XYZ
    dof rx ry rz
    limits (-20.0 45.0)
           (-30.0 30.0)
           (-30.0 30.0)
  end
  begin
     id 15 
     name upperneck
     direction 0.248049 0.963095 -0.104496   
     length 1.74979   
     axis 0 0 0   XYZ
    dof rx ry rz
    limits (-20.0 45.0)
           (-30.0 30.0)
           (-30.0 30.0)
  end
  begin
     id 16
     name head
     direction 0.0903589 0.994284 -0.056876  
     length 1.78268  
     axis 0 0 0   XYZ
    dof rx ry rz
    limits (-20.0 45.0)
           (-30.0 30.0)
           (-30.0 30.0)
  end
  begin
     id 17 
     name lclavicle
     direction 0.946008 0.242039 -0.215608  
     length 3.80783  
     axis 0 0 0   XYZ
    dof ry rz
    limits (-20.0 10.0)
           (0.0 20.0)
  end
  begin
     id 18 
     name lhumerus
     direction 1 -4.48991e-011 -2.25695e-027   
     length 4.83125   
     axis 180 -30 -90   XYZ
    dof rx ry rz
    limits (-60.0 90.0)
           (-90.0 90.0)
           (-90.0 90.0)
  end
  begin
     id 19
     name lradius
     direction 0.999991 0.00366712 -0.00211721   
     length 3.00391   
     axis 180 -30 -90   XYZ
    dof rx
    limits (-10.0 170.0)
  end
  begin
     id 20
     name lwrist
     direction 0.999991 0.00393016 -0.00141978   
     length 1.50195   
     axis -1.00488e-014 90 90   XYZ
    dof ry
    limits (-180.0 0.0)
 end
  begin
     id 21 
     name lhand
     direction 1 -4.49123e-011 2.72098e-026   
     length 1.2717   
     axis -1.73687e-014 90 90   XYZ
    dof rx rz
    limits (-90.0 90.0)
           (-45.0 45.0)
  end
  begin
     id 22 
     name lfingers
     direction 1 -4.48678e-011 5.4479e-026   
     length 1.02528   
     axis -3.47372e-014 90 90   XYZ
    dof rx
    limits (0.0 90.0)
  end
  begin
     id 23
     name lthumb
     direction 0.707107 -6.34851e-011 0.707107   
     length 1.4721   
     axis -90 45 -1.62303e-014   XYZ
    dof rx rz
    limits (-45.0 45.0)
           (-45.0 45.0)
  end
  begin
     id 24 
     name rclavicle
     direction -0.981723 0.189447 -0.0181673   
     length 3.74989  
     axis 0 0 0   XYZ 
    dof ry rz
    limits (-10.0 20.0)
           (-20.0 0.0)
  end
  begin
     id 25 
     name rhumerus
     direction -1 -4.48985e-011 2.38206e-027  
     length 4.61118   
     axis 180 30 90   XYZ
    dof rx ry rz
    limits (-90.0 60.0)
           (-90.0 90.0)
           (-90.0 90.0)
  end
  begin
     id 26 
     name rradius
     direction -1 -4.48977e-011 7.41019e-027   
     length 2.91491   
     axis 180 30 90   XYZ
    dof rx
    limits (-10.0 170.0)
  end
  begin
     id 27 
     name rwrist
     direction -1 -4.48549e-011 1.3624e-026   
     length 1.45745   
     axis -1.00488e-014 -90 -90   XYZ
    dof ry
    limits (-180.0 0.0)
  end
  begin
     id 28
     name rhand
     direction -1 -4.49107e-011 2.72109e-026   
     length 1.30769   
     axis -1.73687e-014 -90 -90   XYZ
    dof rx rz
    limits (-90.0 90.0)
           (-45.0 45.0)
  end
  begin
     id 29
     name rfingers
     direction -1 -4.48919e-011 5.44468e-026   
     length 1.05429   
     axis -3.47372e-014 -90 -90   XYZ
    dof rx
    limits (0.0 90.0)
  end
  begin
     id 30
     name rthumb
     direction -0.707107 -6.35315e-011 0.707107   
     length 1.51376   
     axis -90 -45 1.62303e-014   XYZ
    dof rx rz
    limits (-45.0 45.0)
           (-45.0 45.0)
  end
:hierarchy
  begin
    root lhipjoint rhipjoint lowerback
    lhipjoint lfemur
    lfemur ltibia
    ltibia lfoot
    lfoot ltoes
    rhipjoint rfemur
    rfemur rtibia
    rtibia rfoot
    rfoot rtoes
    lowerback upperback
    upperback thorax
    thorax lowerneck lclavicle rclavicle
    lowerneck upperneck
    upperneck head
    lclavicle lhumerus
    lhumerus lradius
    lradius lwrist
    lwrist lhand lthumb
    lhand lfingers
    rclavicle rhumerus
    rhumerus rradius
    rradius rwrist
    rwrist rhand rthumb
    rhand rfingers
  end

#!OML:ASF X:\für Bonn\!DataBase\2005_08_11_Bastian_Final\c3d\Bastian.ASF
:FULLY-SPECIFIED
:DEGREES
16
root 29.4702 17.51 -1.67377 384.076 -87.5246 -34.3407
lowerback 8.69129 -0.838951 0.209178
upperback 10.0302 -1.66702 1.14069
thorax 5.65059 -1.08651 1.11195
lowerneck 1.17514 -2.81773 -3.98654
upperneck 16.6338 -5.11485 6.46219
head 5.05 -2.57297 2.44859
rclavicle -1.05356e-014 8.34896e-015
rhumerus -27.2032 9.10813 -84.9697
rradius 36.4534
rwrist -4.59752
rhand -17.0215 0.757506
rfingers 7.12502
rthumb 9.21464 -29.0212
lclavicle -1.05356e-014 8.34896e-015
lhumerus -14.5356 -18.243 89.6363
lradius 39.8998
lwrist 23.0726
lhand -14.5485 -9.76438
lfingers 7.12502
lthumb 11.6002 19.8946
rfemur -21.4759 2.86569 20.6327
rtibia 38.413
rfoot -12.6728 -5.92463
rtoes -4.05226
lfemur 13.6961 2.93034 -19.931
ltibia 15.8284
lfoot -8.46993 -11.8275
ltoes -0.378987
17
root 29.3527 17.5114 -1.68728 381.5 -87.3174 -31.7152
lowerback 8.69901 -0.859349 0.177864
upperback 10.0366 -1.69651 1.17356
thorax 5.65602 -1.10454 1.16493
lowerneck 1.06386 -2.85024 -3.9928
upperneck 16.7583 -5.16672 6.46967
head 5.11049 -2.59512 2.44737
rclavicle 1.8487e-014 -3.97569e-015
rhumerus -27.0633 9.28163 -84.9287
rradius 36.5015
rwrist -4.82881
rhand -17.0567 0.616924
rfingers 7.12502
rthumb 9.18064 -29.1632
lclavicle 1.8487e-014 -3.97569e-015
lhumerus -14.4345 -18.5314 89.7676
lradius 39.9223
lwrist 22.9198
lhand -14.5534 -9.75785
lfingers 7.12502
lthumb 11.5955 19.9013
rfemur -21.5513 3.50839 20.5918
rtibia 36.7404
rfoot -12.6577 -6.5242
rtoes -4.8259
lfemur 14.4975 2.79035 -19.8381
ltibia 14.9456
lfoot -8.31064 -11.9453
ltoes -0.581082
18
root 29.2324 17.5101 -1.70102 379.753 -87.1085 -29.9141
lowerback 8.68142 -0.872765 0.167823
upperback 10.031 -1.71492 1.21711
thorax 5.66195 -1.11542 1.21638
lowerneck 1.00924 -2.88873 -4.00449
upperneck 16.8674 -5.22533 6.46098
head 5.1569 -2.62331 2.44268
rclavicle -2.35063e-014 8.34896e-015
rhumerus -26.9628 9.42029 -84.8788
rradius 36.5497
rwrist -5.03178
rhand -17.0744 0.519291
rfingers 7.12502
rthumb 9.16353 -29.2616
lclavicle -2.35063e-014 8.34896e-015
lhumerus -14.3706 -18.8362 89.9084
lradius 39.8893
lwrist 22.7243
lhand -14.4397 -9.62141
lfingers 7.12502
lthumb 11.7051 20.0316
rfemur -21.6153 4.22371 20.5552
rtibia 35.1993
rfoot -12.6759 -7.21056
rtoes -4.97501
lfemur 15.2559 2.72325 -19.701
ltibia 14.1625
lfoot -8.20335 -12.1203
ltoes -0.935667
19
root 29.1125 17.5048 -1.71453 377.973 -86.8788 -28.1096
lowerback 8.69978 -0.896026 0.175959
upperback 10.0291 -1.74592 1.25365
thorax 5.65158 -1.13156 1.25162
lowerneck 0.963442 -2.92206 -4.02489
upperneck 16.9985 -5.28005 6.45585
head 5.20875 -2.65036 2.4408
rclavicle -1.67476e-014 1.25234e-014
rhumerus -26.8651 9.62238 -84.8391
rradius 36.6142
rwrist -5.31017
rhand -17.1243 0.356592
rfingers 7.12502
rthumb 9.11539 -29.4264
lclavicle -1.67476e-014 1.25234e-014
lhumerus -14.3409 -19.1038 90.0348
lradius 39.854
lwrist 22.528
lhand -14.2462 -9.49995
lfingers 7.12502
lthumb 11.8917 20.1423
rfemur -21.6276 4.98631 20.4921
rtibia 33.8236
rfoot -12.845 -7.9609
rtoes -4.58649
lfemur 16.0119 2.57072 -19.5886
ltibia 13.4571
lfoot -8.1651 -12.2613
ltoes -1.36479
20
root 28.9912 17.4975 -1.72938 376.561 -86.6433 -26.6827
lowerback 8.71982 -0.91859 0.171038
upperback 10.0323 -1.77758 1.29981
thorax 5.64669 -1.14955 1.30421
lowerneck 0.863901 -2.95846 -4.0855
upperneck 17.1693 -5.34183 6.47118
head 5.28395 -2.68066 2.45061
rclavicle 3.27498e-014 -3.29983e-014
rhumerus -26.767 9.82685 -84.8089
rradius 36.6687
rwrist -5.4836
rhand -17.1961 0.219867
rfingers 7.12502
rthumb 9.04615 -29.5662
lclavicle 3.27498e-014 -3.29983e-014
lhumerus -14.3293 -19.3688 90.1531
lradius 39.7854
lwrist 22.2845
lhand -14.0487 -9.3065
lfingers 7.12502
lthumb 12.0821 20.3247
rfemur -21.6059 5.76285 20.4423
rtibia 32.6334
rfoot -13.2298 -8.75219
rtoes -4.77348
lfemur 16.7519 2.45991 -19.4402
ltibia 12.8161
lfoot -8.17125 -12.4346
ltoes -1.7191
21
root 28.8688 17.4877 -1.74468 374.773 -86.4288 -24.8865
lowerback 8.71912 -0.930822 0.128203
upperback 10.0583 -1.79842 1.32956
thorax 5.67837 -1.16461 1.35954
lowerneck 0.826563 -3.00548 -4.07107
upperneck 17.222 -5.40211 6.42792
head 5.30885 -2.71001 2.43086
rclavicle -5.26779e-015 -2.18663e-015
rhumerus -26.6052 9.95963 -84.771
rradius 36.7036
rwrist -5.57698
rhand -17.2243 0.0574804
rfingers 7.12502
rthumb 9.01889 -29.7297
lclavicle -5.26779e-015 -2.18663e-015
lhumerus -14.2813 -19.5853 90.2565
lradius 39.6401
lwrist 21.956
lhand -13.7405 -9.03987
lfingers 7.12502
lthumb 12.3793 20.5736
rfemur -21.5641 6.64933 20.3352
rtibia 31.6164
rfoot -13.7378 -9.64762
rtoes -5.51677
lfemur 17.46 2.34556 -19.3458
ltibia 12.2697
lfoot -8.2336 -12.6015
ltoes -2.26574
22
root 28.7457 17.476 -1.75954 373.051 -86.1863 -23.1518
lowerback 8.70144 -0.953971 0.0884974
upperback 10.0931 -1.83507 1.37179
thorax 5.72995 -1.18822 1.42609
lowerneck 0.755906 -3.05495 -4.06539
upperneck 17.29 -5.45728 6.3391
head 5.34302 -2.73879 2.3978
rclavicle 1.44119e-014 1.98785e-015
rhumerus -26.4424 10.1315 -84.7154
rradius 36.7809
rwrist -5.66738
rhand -17.2789 -0.0678968
rfingers 7.12502
rthumb 8.96618 -29.8574
lclavicle 1.44119e-014 1.98785e-015
lhumerus -14.2551 -19.8036 90.3628
lradius 39.4981
lwrist 21.5954
lhand -13.4784 -8.78618
lfingers 7.12502
lthumb 12.632 20.8119
rfemur -21.5281 7.46442 20.2243
rtibia 30.7645
rfoot -14.2587 -10.4957
rtoes -6.77738
lfemur 18.1173 2.22798 -19.2375
ltibia 11.8248
lfoot -8.33394 -12.7994
ltoes -2.67151
23
root 28.622 17.4626 -1.7748 372.027 -85.9464 -22.1308
lowerback 8.69561 -0.97756 0.0841173
upperback 10.138 -1.87208 1.41449
thorax 5.78511 -1.21035 1.47352
lowerneck 0.659751 -3.09869 -4.0719
upperneck 17.3468 -5.50894 6.2958
head 5.37919 -2.76334 2.38073
rclavicle 1.18774e-014 -6.36111e-015
rhumerus -26.2587 10.2555 -84.6667
rradius 36.8363
rwrist -5.65151
rhand -17.2771 -0.1153
rfingers 7.12502
rthumb 8.96799 -29.9047
lclavicle 1.18774e-014 -6.36111e-015
lhumerus -14.2634 -19.9796 90.4559
lradius 39.3364
lwrist 21.166
lhand -13.2309 -8.63313
lfingers 7.12502
lthumb 12.8706 20.95
rfemur -21.4875 8.40482 20.1385
rtibia 30.061
rfoot -14.67 -11.3873
rtoes -7.78884
lfemur 18.7446 2.10734 -19.0947
ltibia 11.4557
lfoot -8.4448 -13.0055
ltoes -2.99787
24
root 28.4987 17.4477 -1.79096 370.665 -85.6995 -20.7561
lowerback 8.67258 -0.989103 0.0453677
upperback 10.1928 -1.89522 1.45816
thorax 5.86142 -1.22808 1.54007
lowerneck 0.566068 -3.14903 -4.10341
upperneck 17.3817 -5.57041 6.28091
head 5.40999 -2.79236 2.3763
rclavicle -8.44835e-015 1.27222e-014
rhumerus -26.01 10.3979 -84.6037
rradius 36.8196
rwrist -5.66333
rhand -17.3276 -0.109663
rfingers 7.12502
rthumb 8.91927 -29.9011
lclavicle -8.44835e-015 1.27222e-014
lhumerus -14.241 -20.2248 90.5502
lradius 39.1209
lwrist 20.8279
lhand -13.0135 -8.61898
lfingers 7.12502
lthumb 13.0802 20.9508
rfemur -21.4629 9.29655 20.0258
rtibia 29.5129
rfoot -14.9672 -12.2537
rtoes -8.62745
lfemur 19.3122 1.98961 -18.9763
ltibia 11.1747
lfoot -8.56902 -13.2092
ltoes -3.39611
25
root 28.3738 17.4313 -1.80651 369.525 -85.4712 -19.6307
lowerback 8.64848 -1.01296 0.023537
upperback 10.2644 -1.93516 1.48309
thorax 5.95612 -1.25315 1.57774
lowerneck 0.485189 -3.17717 -4.10562
upperneck 17.3836 -5.59998 6.2637
head 5.4257 -2.80461 2.36818
rclavicle -9.93923e-017 -9.93923e-015
rhumerus -25.7349 10.5366 -84.5794
rradius 36.7792
rwrist -5.57188
rhand -17.3503 -0.0864905
rfingers 7.12502
rthumb 8.8973 -29.8789
lclavicle -9.93923e-017 -9.93923e-015
lhumerus -14.2627 -20.3757 90.6265
lradius 38.8231
lwrist 20.5778
lhand -12.85 -8.84191
lfingers 7.12502
lthumb 13.2377 20.7177
rfemur -21.3868 10.1068 19.9541
rtibia 29.1135
rfoot -15.2557 -13.0165
rtoes -9.51199
lfemur 19.868 1.82527 -18.8848
ltibia 10.98
lfoot -8.69105 -13.3587
ltoes -3.56928
26
root 28.2501 17.4147 -1.82243 368.331 -85.2204 -18.45
lowerback 8.6327 -1.02779 -0.00680617
upperback 10.3367 -1.96414 1.52371
thorax 6.04772 -1.27411 1.63642
lowerneck 0.449123 -3.21064 -4.14424
upperneck 17.3572 -5.6388 6.27484
head 5.42714 -2.823 2.37551
rclavicle 1.2275e-014 2.78299e-015
rhumerus -25.4185 10.7034 -84.505
rradius 36.6668
rwrist -5.51059
rhand -17.4179 -0.0507672
rfingers 7.12502
rthumb 8.83212 -29.8459
lclavicle 1.2275e-014 2.78299e-015
lhumerus -14.2956 -20.5215 90.73
lradius 38.4886
lwrist 20.5647
lhand -12.6459 -9.27151
lfingers 7.12502
lthumb 13.4345 20.2753
rfemur -21.2655 10.6771 19.9402
rtibia 28.8563
rfoot -15.5032 -13.5486
rtoes -10.8124
lfemur 20.3617 1.68755 -18.7794
ltibia 10.8706
lfoot -8.7874 -13.5477
ltoes -3.73873
